PathFileType	4	(X/Y/Z)	 s07c0201.trc
DataRate	CameraRate	NumFrames	NumMarkers	Units	OrigDataRate	OrigDataStartFrame	OrigNumFrames
200	200	4	48	mm	200	251	2000
Frame#	Time	racr			lacr			c7			jug			rlel			rdr			llel			ldr			s2			lic			ric			lasi			rasi			rpsi			lpsi			rgt			lgt			rth1			rth2			rth3			rth4			rlfc			rmfc			rsh1			rsh2			rsh3			rsh4			rlmal			rcal			rtoe			rmt5			lth1			lth2			lth4			lth3			llfc			lmfc			lsh1			lsh2			lsh3			lsh4			llmal			lcal			ltoe			lmt5			SBIKE			LBIKE			RBIKE			
		X1	Y1	Z1	X2	Y2	Z2	X3	Y3	Z3	X4	Y4	Z4	X5	Y5	Z5	X6	Y6	Z6	X7	Y7	Z7	X8	Y8	Z8	X9	Y9	Z9	X10	Y10	Z10	X11	Y11	Z11	X12	Y12	Z12	X13	Y13	Z13	X14	Y14	Z14	X15	Y15	Z15	X16	Y16	Z16	X17	Y17	Z17	X18	Y18	Z18	X19	Y19	Z19	X20	Y20	Z20	X21	Y21	Z21	X22	Y22	Z22	X23	Y23	Z23	X24	Y24	Z24	X25	Y25	Z25	X26	Y26	Z26	X27	Y27	Z27	X28	Y28	Z28	X29	Y29	Z29	X30	Y30	Z30	X31	Y31	Z31	X32	Y32	Z32	X33	Y33	Z33	X34	Y34	Z34	X35	Y35	Z35	X36	Y36	Z36	X37	Y37	Z37	X38	Y38	Z38	X39	Y39	Z39	X40	Y40	Z40	X41	Y41	Z41	X42	Y42	Z42	X43	Y43	Z43	X44	Y44	Z44	X45	Y45	Z45	X46	Y46	Z46	X47	Y47	Z47	X48	Y48	Z48	
251	1.2550	407.092752	1487.538384	-60.346213	408.478471	1471.083738	-347.501544	379.139109	1525.949565	-209.133908	358.671451	1381.772500	-207.868850	509.105906	1168.399691	32.532264	691.145002	935.800480	-38.181415	518.595866	1168.423404	-452.199833	692.050551	929.259285	-421.337857	-141.662209	1201.932435	-239.919798	22.331905	1265.021759	-376.607955	18.321807	1254.758074	-80.892720	60.690745	1186.397220	-348.156759	36.706553	1200.472776	-101.455212	-120.988595	1242.070389	-187.030243	-105.070640	1252.666768	-295.985067	-28.851799	1133.385760	-38.174862	-25.587446	1101.706608	-405.969521	109.047080	1086.932511	-30.273116	196.493707	1084.301356	-38.212887	271.233885	1043.163905	-33.463287	205.215791	1115.974881	-56.150802	399.364686	972.272060	-64.712906	400.505894	961.134406	-172.219148	341.835959	840.260417	-49.713169	325.269931	754.784812	-71.231573	270.950388	687.410432	-73.035297	343.643036	752.720083	-107.902575	206.063246	570.844084	-81.225853	134.697722	547.284604	-114.020314	410.069036	455.152856	-116.154267	324.136575	442.862018	-47.819498	35.140829	993.828940	-413.703764	102.221562	936.348539	-414.736842	131.851782	956.154127	-405.863776	131.394432	852.322934	-409.669490	216.025196	696.227299	-377.079799	201.224454	678.907655	-280.795526	137.555800	569.231008	-402.897286	112.515632	488.943408	-384.003583	50.589074	424.232636	-394.347210	115.834682	490.289221	-342.121585	-26.249743	313.187423	-393.470178	-102.944270	289.271482	-361.085741	172.365761	200.936628	-352.787848	89.561178	196.630312	-417.745061	-260.177561	976.882767	-230.058305	-76.054829	83.511919	-435.377787	-81.971675	79.383625	-37.995006	
252	1.2600	407.016290	1487.519951	-60.071449	408.548708	1471.184395	-347.298085	379.178672	1525.947108	-208.900153	358.709283	1381.839183	-207.690799	509.303562	1168.446210	32.557093	691.222457	935.759862	-38.051975	518.730874	1168.507320	-451.863407	692.056234	929.246138	-421.220443	-141.630683	1201.943593	-239.890637	22.386824	1265.039945	-376.553893	18.318023	1254.775423	-80.837180	60.770771	1186.386045	-348.076982	36.711288	1200.505416	-101.442538	-120.951122	1242.072936	-187.008961	-105.007608	1252.666301	-295.954414	-28.788268	1133.391093	-38.174619	-25.482011	1101.711251	-405.930806	109.149218	1086.983968	-30.375744	196.592501	1084.351632	-38.370347	271.334876	1043.302387	-33.632025	205.316462	1116.066988	-56.243647	399.425383	972.401819	-64.926864	400.547221	961.221282	-172.421540	341.900914	840.384082	-49.872972	325.295900	754.892947	-71.364483	270.934847	687.599910	-73.132232	343.621342	752.841691	-108.050794	205.960230	571.063843	-81.223815	134.603336	547.569092	-114.006685	409.932838	455.263385	-116.176130	323.936321	443.150116	-47.719065	35.205983	993.812104	-413.695364	102.239464	936.295119	-414.715117	131.872722	956.090785	-405.819127	131.366973	852.267689	-409.670909	215.953020	696.129894	-377.076634	201.161331	678.796528	-280.792547	137.554178	569.073810	-402.879697	112.546694	488.794896	-383.987482	50.617471	424.024164	-394.372553	115.815889	490.155064	-342.145231	-26.158713	312.965692	-393.488022	-102.823770	288.996368	-361.096059	172.541776	200.818255	-352.794978	89.723896	196.511730	-417.754384	-260.165210	976.891611	-230.060752	-76.039405	83.501384	-435.366143	-81.971685	79.400870	-38.003063	
253	1.2650	406.945520	1487.499767	-59.790924	410.595049	1472.479722	-351.557660	379.191365	1525.972540	-208.628082	358.764362	1381.890533	-207.482472	509.475194	1168.499646	32.568372	691.299509	935.725870	-37.955739	518.887729	1168.588315	-451.503061	692.035139	929.226552	-421.052289	-141.572712	1201.941947	-239.897342	22.475813	1265.046293	-376.513468	18.321177	1254.780855	-80.807194	60.823703	1186.420577	-348.002412	36.716077	1200.498217	-101.393669	-120.914437	1242.069162	-186.983105	-104.940771	1252.670442	-295.939096	-28.751326	1133.420942	-38.150576	-25.404442	1101.712947	-405.902204	109.248510	1087.037868	-30.425612	196.682296	1084.452551	-38.481130	271.396747	1043.422603	-33.817474	205.346621	1116.183168	-56.395980	399.539384	972.553951	-65.156225	400.526800	961.381320	-172.699162	341.991536	840.544651	-50.031387	325.323565	755.091884	-71.468437	270.966294	687.821937	-73.208488	343.641201	752.985271	-108.186632	205.921456	571.267092	-81.227484	134.556916	547.884648	-113.972027	409.810594	455.308329	-116.179332	323.709358	443.306194	-47.650827	35.246898	993.799285	-413.686261	102.262115	936.248917	-414.697581	131.914567	956.042515	-405.774250	131.343494	852.195451	-409.635783	215.876622	696.024590	-377.064217	201.085872	678.690543	-280.795344	137.506479	568.944509	-402.881470	112.567158	488.651665	-383.994030	50.630407	423.892023	-394.383345	115.811012	490.028336	-342.142888	-26.103884	312.746975	-393.495583	-102.748210	288.748638	-361.133705	172.663928	200.754778	-352.780930	89.884528	196.385776	-417.747079	-260.162977	976.888428	-230.054222	-76.056267	83.493049	-435.344044	-81.982719	79.387871	-37.994739	
254	1.2700	406.861314	1487.487819	-59.531591	410.690227	1472.631805	-351.410329	379.385173	1526.369413	-208.609938	358.766607	1381.964653	-207.311720	509.616262	1168.560563	32.584814	691.370309	935.738922	-37.896841	518.998481	1168.691034	-451.132153	692.052940	929.263980	-420.938058	-141.525051	1201.942266	-239.903961	22.541664	1265.036655	-376.471264	18.314039	1254.772539	-80.754009	60.885173	1186.455228	-347.950385	36.750532	1200.517605	-101.374551	-120.886317	1242.070305	-186.965507	-104.879176	1252.667794	-295.902077	-28.685844	1133.441088	-38.131181	-25.346488	1101.712259	-405.875044	109.371019	1087.085139	-30.479429	196.790136	1084.578465	-38.611891	271.505148	1043.562371	-33.975355	205.412358	1116.257234	-56.535637	399.651977	972.795693	-65.442332	400.557054	961.500361	-173.007967	342.104216	840.744791	-50.210517	325.447957	755.320443	-71.612636	271.015980	688.037671	-73.278864	343.701057	753.125917	-108.288430	206.230148	571.717180	-80.928347	134.559195	548.183399	-113.940053	409.708325	455.318131	-116.171727	323.608338	443.400384	-47.642680	35.293252	993.780519	-413.675216	102.291365	936.192400	-414.671835	131.931348	955.962152	-405.728655	131.316252	852.139062	-409.632985	215.776817	695.904695	-377.050698	201.014642	678.614813	-280.803933	137.438082	568.828460	-402.885566	112.532885	488.505068	-383.984509	50.614640	423.767276	-394.398145	115.779168	489.937249	-342.137696	-26.097997	312.583863	-393.538010	-102.730560	288.552900	-361.129604	172.741968	200.746852	-352.793370	90.002450	196.261950	-417.729556	-260.175007	976.894866	-230.044663	-76.049841	83.506956	-435.359904	-81.986777	79.402428	-37.989045	
